<svg width="75" height="15" viewBox="0 0 75 15" fill="none" xmlns="http://www.w3.org/2000/svg">
<path d="M26.7194 14.4621C23.9999 14.4621 21.4799 13.5746 19.7999 11.9197C19.1992 11.3283 18.7205 10.6033 18.3959 9.79303C18.0713 8.98278 17.9081 8.10599 17.9174 7.22118C17.9156 6.34002 18.0821 5.46819 18.4063 4.66181C18.7305 3.85542 19.2053 3.13233 19.7999 2.53908C21.3599 0.986051 24.1199 0 26.7194 0C29.5949 0 31.8974 0.793771 33.6569 2.54237C34.2493 3.13541 34.7208 3.85864 35.0408 4.66484C35.3608 5.47104 35.522 6.3421 35.5139 7.22118C35.5099 8.10113 35.3433 8.97108 35.0242 9.77859C34.705 10.5861 34.2399 11.3144 33.6569 11.9197C32.0174 13.5845 29.4434 14.4621 26.7194 14.4621V12.559C28.1609 12.559 29.4989 12.0134 30.4334 10.9945C31.3679 9.97555 31.7924 8.7397 31.7924 7.2146C31.7924 5.75854 31.3259 4.39779 30.4334 3.43474C29.5109 2.44048 28.1414 1.88007 26.7194 1.88007C25.2974 1.88007 23.9219 2.43555 22.9994 3.43474C22.1099 4.39943 21.6494 5.76511 21.6494 7.2146C21.6361 7.91102 21.7485 8.60346 21.9802 9.25213C22.2118 9.90081 22.5582 10.4929 22.9994 10.9945C23.9219 12.0019 25.2884 12.559 26.7194 12.559V14.4621ZM6.86245 0C5.40895 0 3.75745 0.299102 2.36245 0.986051C1.06045 1.6237 -5.17925e-05 2.64755 -5.17925e-05 4.3452C-0.00200789 5.23421 0.306591 6.09035 0.862448 6.73801C1.23895 7.11929 1.84645 7.76679 3.43345 8.14807C4.14295 8.31241 5.65945 8.577 7.16995 8.7512C8.68045 8.9254 10.1444 9.07988 10.7444 9.25573C11.2214 9.38885 12.0239 9.56962 12.0239 10.5557C12.0239 11.5417 11.1794 11.8375 11.0324 11.9016C10.8854 11.9657 9.87145 12.4752 8.05045 12.4752C6.84392 12.4385 5.64836 12.2133 4.49995 11.8063C3.82045 11.5401 3.10795 11.19 2.44345 10.3009C2.17528 9.88225 2.0265 9.38582 2.01595 8.87446H0.365948V13.9362H2.19895V13.2509C2.19866 13.2 2.21074 13.15 2.23395 13.106C2.25717 13.062 2.29067 13.0256 2.33101 13.0005C2.37135 12.9754 2.41707 12.9625 2.46346 12.9632C2.50985 12.9638 2.55524 12.9781 2.59495 13.0044C3.45853 13.4161 4.35681 13.7342 5.27695 13.9543C6.23995 14.1745 6.86245 14.3339 8.05945 14.3339C9.32254 14.3602 10.5814 14.1655 11.7884 13.7571C12.59 13.5163 13.342 13.1097 14.0039 12.559C14.3762 12.2457 14.6772 11.8421 14.883 11.3798C15.0889 10.9176 15.1941 10.4093 15.1904 9.89502C15.1967 8.91792 14.8525 7.97721 14.2319 7.27541C13.8869 6.90851 13.4871 6.60893 13.0499 6.38961C12.58 6.15696 12.092 5.97052 11.5919 5.83249C10.6409 5.57776 8.50495 5.25894 7.48345 5.14718C6.41245 5.02557 4.55395 4.8563 3.81145 4.60486C3.58645 4.52762 3.12745 4.28932 3.12745 3.70591C3.12745 3.29012 3.33745 2.93843 3.75145 2.65412C4.40995 2.20218 5.73895 1.92116 7.12495 1.92116C8.46651 1.90341 9.79707 2.18814 11.0339 2.75766C11.3663 2.91626 11.6788 3.1206 11.9639 3.36572C12.4288 3.80074 12.7508 4.39071 12.8804 5.04529H14.3609V0.63929H12.7109V1.15039C12.7109 1.31473 12.5609 1.53167 12.2609 1.35253C11.5169 0.928531 9.42595 0.0115039 6.86245 0ZM43.0859 0.808562L51.1499 8.78078L51.0674 3.41338C51.0584 2.70835 50.9414 2.41418 50.2454 2.41418H48.7304V0.808562H55.6304V2.41418H54.1499C53.4419 2.41418 53.3999 2.66398 53.3879 3.41338L53.5124 13.6699H51.1499L41.8604 4.58842V11.0323C41.8679 11.734 41.8979 12.0643 42.5564 12.0643H44.2064V13.6699H37.4429V12.0643H39.0269C39.6179 12.0643 39.5939 11.4464 39.5939 10.9961V3.47418C39.5939 2.98116 39.5309 2.41582 38.6039 2.41582H37.3199V0.808562H43.0859ZM63.5024 12.061C63.6388 12.0611 63.7751 12.0517 63.9104 12.0331C63.9807 12.01 64.0456 11.9704 64.1005 11.917C64.1554 11.8637 64.1991 11.7978 64.2284 11.7241C64.2492 11.6099 64.2597 11.4938 64.2599 11.3774V8.8383C64.2599 8.75284 64.2599 8.7512 64.1609 8.61644C64.0619 8.48168 59.9369 3.3575 59.7494 3.12742C59.5154 2.84804 59.1044 2.41582 58.4789 2.41582H57.0464V0.808562H65.1314V2.41254H64.1564C63.9314 2.41254 63.7814 2.64755 63.9734 2.90556C63.9734 2.90556 66.6944 6.47178 66.7199 6.50958C66.7454 6.54738 66.7679 6.55559 66.8024 6.52108C66.8369 6.48657 69.5909 2.93843 69.6119 2.90556C69.6445 2.85876 69.6641 2.80269 69.6684 2.74404C69.6728 2.68538 69.6616 2.6266 69.6363 2.57468C69.6111 2.52275 69.5727 2.47987 69.5258 2.45113C69.479 2.42239 69.4256 2.40899 69.3719 2.41254H68.3714V0.808562H74.9999V2.41582H73.5194C72.9824 2.41582 72.7694 2.52429 72.3599 3.02389L67.8974 8.60165C67.8538 8.6707 67.8345 8.75484 67.8434 8.8383V11.3757C67.8442 11.4922 67.8553 11.6083 67.8764 11.7225C67.9053 11.7963 67.9486 11.8622 68.0033 11.9156C68.058 11.969 68.1227 12.0085 68.1929 12.0315C68.3272 12.0509 68.4625 12.0602 68.5979 12.0594H70.1114V13.6667H62.0684V12.0594L63.5024 12.061Z" fill="white"/>
</svg>
