<svg width="20" height="20" viewBox="0 0 20 20" fill="none" xmlns="http://www.w3.org/2000/svg">
<path fill-rule="evenodd" clip-rule="evenodd" d="M15.6195 13.0498L14.7454 11.6551H12.1951L13.0702 10.2576H13.8766L12.9024 8.70244L10.1844 13.0498H2.93366L4.68 10.2576H3.39756L4.26927 8.86049H9.87317L9.00098 10.2576H6.32829L5.45463 11.6551H9.40829L12.901 6.06537L17.2663 13.0498H15.6195ZM6.01561 6.06537H11.7644L10.8907 7.46293H5.14146L6.01512 6.06537H6.01561ZM10 0C4.47707 0 0 4.47756 0 10.0005C0 15.5244 4.47707 20 10 20C15.522 20 20 15.5244 20 10.0005C20 4.47756 15.522 0 10 0Z" fill="#FF4747"/>
</svg>
